<svg xmlns="http://www.w3.org/2000/svg" viewBox="0 10 130 260" fill="none" stroke="currentColor" stroke-width="2">
<g data-ref="C1" transform="translate(70 170) rotate(-270)"><path d="M0 0H27M33 0H60M27 -12V12M33 -12V12"/></g>
<g transform="translate(70 230)"><path d="M0 0V10M-10 10H10M-6 14H6M-2 18H2"/></g>
<g data-ref="RV1" transform="translate(40 110) rotate(-270)"><path d="M0 0H15L17.5 -6L22.5 6L27.5 -6L32.5 6L37.5 -6L42.5 6L45 0H60M30 -30V-12"/><path d="M30 -20L30 -14"/><path fill="currentColor" stroke="none" d="M30 -7L26.5 -14L33.5 -14Z"/></g>
<g transform="translate(40 170)"><path d="M0 0V10M-10 10H10M-6 14H6M-2 18H2"/></g>
<g data-ref="V1" transform="translate(40 30) rotate(-270)"><path d="M0 0H16M44 0H60M22 0Q26 -10 30 0T38 0"/><circle cx="30" cy="0" r="14"/></g>
<g transform="translate(40 90)"><path d="M0 0V10M-10 10H10M-6 14H6M-2 18H2"/></g>
<polyline data-net="in" points="40,30 20,30 20,110 40,110"/>
<polyline data-net="out" points="70,140 70,170"/>
<g fill="currentColor" stroke="none" font-family="sans-serif" font-size="10" text-anchor="middle">
<text x="86" y="198" text-anchor="start">C1</text>
<text x="86" y="210" text-anchor="start">100n</text>
<text x="74" y="138" text-anchor="start">RV1</text>
<text x="74" y="150" text-anchor="start">10k</text>
<text x="59" y="58" text-anchor="start">V1</text>
<text x="59" y="70" text-anchor="start">AC 1V</text>
</g>
</svg>
