<svg xmlns="http://www.w3.org/2000/svg" viewBox="5 0 245 200" fill="none" stroke="currentColor" stroke-width="2">
<g data-ref="Rl" transform="translate(200 80) rotate(-270)"><path d="M0 0H15L17.5 -6L22.5 6L27.5 -6L32.5 6L37.5 -6L42.5 6L45 0H60"/></g>
<g transform="translate(200 140)"><path d="M0 0V10M-10 10H10M-6 14H6M-2 18H2"/></g>
<g data-ref="V1" transform="translate(40 100) rotate(-270)"><path d="M0 0H16M44 0H60M22 0Q26 -10 30 0T38 0"/><circle cx="30" cy="0" r="14"/></g>
<g transform="translate(40 160)"><path d="M0 0V10M-10 10H10M-6 14H6M-2 18H2"/></g>
<g data-ref="Vcc" transform="translate(150 60)"><path d="M0 0V-20M-10 -20H10"/></g>
<g data-ref="Vee" transform="translate(150 120) scale(1 -1)"><path d="M0 0V-20M-10 -20H10"/></g>
<g data-ref="X1" transform="translate(110 90)"><path d="M0 -10H20M0 10H20M60 0H80M20 -30V30L60 0Z M24 -10H30 M24 10H30M27 7V13M40 -15V-30M40 15V30"/></g>
<polyline data-net="in" points="40,100 110,100"/>
<polyline data-net="out" points="190,90 190,80 200,80"/>
<polyline data-net="out" points="190,90 190,20 110,20 110,80"/>
<g fill="currentColor" stroke="none" font-family="sans-serif" font-size="10" text-anchor="middle">
<text x="212" y="108" text-anchor="start">Rl</text>
<text x="212" y="120" text-anchor="start">10k</text>
<text x="59" y="128" text-anchor="start">V1</text>
<text x="59" y="140" text-anchor="start">1V AC 1V</text>
<text x="150" y="36">+15V</text>
<text x="150" y="154">-15V</text>
<text x="146" y="56" text-anchor="end">X1</text>
<text x="146" y="134" text-anchor="end">TL072</text>
</g>
</svg>
